<?xml version="1.0" encoding="utf-8"?>
<!DOCTYPE svg PUBLIC "-//W3C//DTD SVG 1.1//EN" "http://www.w3.org/Graphics/SVG/1.1/DTD/svg11.dtd">
<svg xmlns="http://www.w3.org/2000/svg" xmlns:xlink="http://www.w3.org/1999/xlink" version="1.1" width="24" height="24" viewBox="0 0 24 24">
	<filter id="glow">
      <feGaussianBlur stdDeviation="1" result="coloredBlur"/>
      <feMerge>
          <feMergeNode in="eo"/>
          <feMergeNode in="coloredBlur"/>
      </feMerge>
  </filter>
  <path id="eo" fill="#000" fill-opacity="0.4" filter="url(#glow)" d="M15.643,6.252H8.357c-1.585,0-3.025,0.643-4.066,1.684s-1.684,2.481-1.684,4.066
		c0,3.176,2.575,5.746,5.75,5.746h7.285c3.176,0,5.75-2.57,5.75-5.746C21.393,8.827,18.818,6.252,15.643,6.252z M15.6,13.965H8.4
		c-1.084,0-1.967-0.879-1.967-1.963c0-0.539,0.219-1.032,0.579-1.388c0.355-0.36,0.848-0.579,1.388-0.579H15.6
		c1.089,0,1.967,0.883,1.967,1.967S16.688,13.965,15.6,13.965z"/>
	<path fill="#FFFFFF" d="M15.643,6.252H8.357c-1.585,0-3.025,0.643-4.066,1.684s-1.684,2.481-1.684,4.066
		c0,3.176,2.575,5.746,5.75,5.746h7.285c3.176,0,5.75-2.57,5.75-5.746C21.393,8.827,18.818,6.252,15.643,6.252z M15.6,13.965H8.4
		c-1.084,0-1.967-0.879-1.967-1.963c0-0.539,0.219-1.032,0.579-1.388c0.355-0.36,0.848-0.579,1.388-0.579H15.6
		c1.089,0,1.967,0.883,1.967,1.967S16.688,13.965,15.6,13.965z"/>
</svg>
