{
  "accessors": [
    {
      "bufferView": 0,
      "componentType": 5126,
      "count": 32,
      "type": "VEC3",
      "max": [
        1.0,
        1.0,
        1.0
      ],
      "min": [
        -1.0,
        -1.0,
        -1.0
      ]
    },
    {
      "bufferView": 1,
      "componentType": 5126,
      "count": 32,
      "type": "VEC4",
      "max": [
        1.0,
        0.0,
        0.0,
        1.0
      ],
      "min": [
        1.0,
        0.0,
        0.0,
        1.0
      ]
    },
    {
      "bufferView": 2,
      "componentType": 5126,
      "count": 32,
      "type": "VEC3",
      "max": [
        1.0,
        1.0,
        -0.032568
      ],
      "min": [
        -1.0,
        -1.000001,
        -4.085215
      ]
    },
    {
      "bufferView": 3,
      "componentType": 5123,
      "count": 60,
      "type": "SCALAR",
      "max": [
        31
      ],
      "min": [
        0
      ]
    },
    {
      "bufferView": 4,
      "componentType": 5126,
      "count": 74,
      "type": "SCALAR",
      "max": [
        2.43333244
      ],
      "min": [
        0.0
      ]
    },
    {
      "bufferView": 5,
      "componentType": 5126,
      "count": 74,
      "type": "VEC4",
      "max": [
        0.7071068,
        0.0,
        0.0,
        0.7071068
      ],
      "min": [
        0.7071068,
        0.0,
        0.0,
        0.7071068
      ]
    },
    {
      "bufferView": 6,
      "componentType": 5126,
      "count": 74,
      "type": "SCALAR",
      "max": [
        2.43333244
      ],
      "min": [
        0.0
      ]
    },
    {
      "bufferView": 7,
      "componentType": 5126,
      "count": 74,
      "type": "VEC3",
      "max": [
        0.0,
        0.0,
        0.0
      ],
      "min": [
        0.0,
        0.0,
        0.0
      ]
    },
    {
      "bufferView": 8,
      "componentType": 5126,
      "count": 74,
      "type": "SCALAR",
      "max": [
        2.43333244
      ],
      "min": [
        0.0
      ]
    },
    {
      "bufferView": 9,
      "componentType": 5126,
      "count": 74,
      "type": "VEC3",
      "max": [
        1.0,
        1.0,
        1.0
      ],
      "min": [
        1.0,
        1.0,
        1.0
      ]
    },
    {
      "bufferView": 10,
      "componentType": 5126,
      "count": 74,
      "type": "SCALAR",
      "max": [
        2.43333244
      ],
      "min": [
        0.0
      ]
    },
    {
      "bufferView": 11,
      "componentType": 5126,
      "count": 74,
      "type": "VEC4",
      "max": [
        0.497527868,
        0.50246,
        0.5024636,
        -0.4975242
      ],
      "min": [
        0.497527868,
        0.50246,
        0.5024636,
        -0.4975242
      ]
    },
    {
      "bufferView": 12,
      "componentType": 5126,
      "count": 74,
      "type": "SCALAR",
      "max": [
        2.43333244
      ],
      "min": [
        0.0
      ]
    },
    {
      "bufferView": 13,
      "componentType": 5126,
      "count": 74,
      "type": "VEC3",
      "max": [
        0.0,
        0.0,
        0.0
      ],
      "min": [
        0.0,
        0.0,
        0.0
      ]
    },
    {
      "bufferView": 14,
      "componentType": 5126,
      "count": 74,
      "type": "SCALAR",
      "max": [
        2.43333244
      ],
      "min": [
        0.0
      ]
    },
    {
      "bufferView": 15,
      "componentType": 5126,
      "count": 74,
      "type": "VEC3",
      "max": [
        0.99999994,
        1.0,
        1.0
      ],
      "min": [
        0.99999994,
        1.0,
        1.0
      ]
    },
    {
      "bufferView": 16,
      "componentType": 5126,
      "count": 74,
      "type": "SCALAR",
      "max": [
        2.43333244
      ],
      "min": [
        0.0
      ]
    },
    {
      "bufferView": 17,
      "componentType": 5126,
      "count": 74,
      "type": "VEC4",
      "max": [
        0.707080662,
        0.332038343,
        0.332036,
        0.7070755
      ],
      "min": [
        0.625047743,
        0.00985944,
        0.009859469,
        0.625043154
      ]
    },
    {
      "bufferView": 18,
      "componentType": 5126,
      "count": 74,
      "type": "SCALAR",
      "max": [
        2.43333244
      ],
      "min": [
        0.0
      ]
    },
    {
      "bufferView": 19,
      "componentType": 5126,
      "count": 74,
      "type": "VEC3",
      "max": [
        -1.93705392,
        1.43423662E-07,
        1.5E-14
      ],
      "min": [
        -1.93705392,
        1.43423662E-07,
        1.5E-14
      ]
    },
    {
      "bufferView": 20,
      "componentType": 5126,
      "count": 74,
      "type": "SCALAR",
      "max": [
        2.43333244
      ],
      "min": [
        0.0
      ]
    },
    {
      "bufferView": 21,
      "componentType": 5126,
      "count": 74,
      "type": "VEC3",
      "max": [
        1.0,
        1.0,
        1.0
      ],
      "min": [
        1.0,
        1.0,
        1.0
      ]
    }
  ],
  "animations": [
    {
      "channels": [
        {
          "sampler": 0,
          "target": {
            "node": 2,
            "path": "rotation"
          }
        },
        {
          "sampler": 1,
          "target": {
            "node": 2,
            "path": "translation"
          }
        },
        {
          "sampler": 2,
          "target": {
            "node": 2,
            "path": "scale"
          }
        },
        {
          "sampler": 3,
          "target": {
            "node": 1,
            "path": "rotation"
          }
        },
        {
          "sampler": 4,
          "target": {
            "node": 1,
            "path": "translation"
          }
        },
        {
          "sampler": 5,
          "target": {
            "node": 1,
            "path": "scale"
          }
        },
        {
          "sampler": 6,
          "target": {
            "node": 0,
            "path": "rotation"
          }
        },
        {
          "sampler": 7,
          "target": {
            "node": 0,
            "path": "translation"
          }
        },
        {
          "sampler": 8,
          "target": {
            "node": 0,
            "path": "scale"
          }
        }
      ],
      "samplers": [
        {
          "input": 4,
          "interpolation": "LINEAR",
          "output": 5
        },
        {
          "input": 6,
          "interpolation": "LINEAR",
          "output": 7
        },
        {
          "input": 8,
          "interpolation": "LINEAR",
          "output": 9
        },
        {
          "input": 10,
          "interpolation": "LINEAR",
          "output": 11
        },
        {
          "input": 12,
          "interpolation": "LINEAR",
          "output": 13
        },
        {
          "input": 14,
          "interpolation": "LINEAR",
          "output": 15
        },
        {
          "input": 16,
          "interpolation": "LINEAR",
          "output": 17
        },
        {
          "input": 18,
          "interpolation": "LINEAR",
          "output": 19
        },
        {
          "input": 20,
          "interpolation": "LINEAR",
          "output": 21
        }
      ],
      "name": "Anim01"
    }
  ],
  "asset": {
    "generator": "glTF Tools for Unity",
    "version": "2.0"
  },
  "bufferViews": [
    {
      "buffer": 0,
      "byteLength": 384
    },
    {
      "buffer": 0,
      "byteOffset": 384,
      "byteLength": 512
    },
    {
      "buffer": 0,
      "byteOffset": 896,
      "byteLength": 384
    },
    {
      "buffer": 0,
      "byteOffset": 1280,
      "byteLength": 120
    },
    {
      "buffer": 0,
      "byteOffset": 1400,
      "byteLength": 296
    },
    {
      "buffer": 0,
      "byteOffset": 1696,
      "byteLength": 1184
    },
    {
      "buffer": 0,
      "byteOffset": 2880,
      "byteLength": 296
    },
    {
      "buffer": 0,
      "byteOffset": 3176,
      "byteLength": 888
    },
    {
      "buffer": 0,
      "byteOffset": 4064,
      "byteLength": 296
    },
    {
      "buffer": 0,
      "byteOffset": 4360,
      "byteLength": 888
    },
    {
      "buffer": 0,
      "byteOffset": 5248,
      "byteLength": 296
    },
    {
      "buffer": 0,
      "byteOffset": 5544,
      "byteLength": 1184
    },
    {
      "buffer": 0,
      "byteOffset": 6728,
      "byteLength": 296
    },
    {
      "buffer": 0,
      "byteOffset": 7024,
      "byteLength": 888
    },
    {
      "buffer": 0,
      "byteOffset": 7912,
      "byteLength": 296
    },
    {
      "buffer": 0,
      "byteOffset": 8208,
      "byteLength": 888
    },
    {
      "buffer": 0,
      "byteOffset": 9096,
      "byteLength": 296
    },
    {
      "buffer": 0,
      "byteOffset": 9392,
      "byteLength": 1184
    },
    {
      "buffer": 0,
      "byteOffset": 10576,
      "byteLength": 296
    },
    {
      "buffer": 0,
      "byteOffset": 10872,
      "byteLength": 888
    },
    {
      "buffer": 0,
      "byteOffset": 11760,
      "byteLength": 296
    },
    {
      "buffer": 0,
      "byteOffset": 12056,
      "byteLength": 888
    }
  ],
  "buffers": [
    {
      "uri": "riggedBox.bin",
      "byteLength": 12944
    }
  ],
  "meshes": [
    {
      "primitives": [
        {
          "attributes": {
            "NORMAL": 0,
            "TANGENT": 1,
            "POSITION": 2
          },
          "indices": 3,
          "material": 0
        }
      ],
      "name": "Cube"
    }
  ],
  "materials": [
    {
      "pbrMetallicRoughness": {
        "baseColorFactor": [
          0.6038274,
          0.6038274,
          0.6038274,
          1.0
        ],
        "metallicFactor": 0.0,
        "roughnessFactor": 0.5
      },
      "name": "Material"
    }
  ],
  "nodes": [
    {
      "rotation": [
        0.707040668,
        0.00985944,
        0.009859469,
        0.7070355
      ],
      "translation": [
        -1.93705392,
        1.43423662E-07,
        1.5E-14
      ],
      "name": "Bone_001"
    },
    {
      "children": [
        0
      ],
      "rotation": [
        0.497527868,
        0.50246,
        0.5024636,
        -0.4975242
      ],
      "scale": [
        0.99999994,
        1.0,
        1.0
      ],
      "name": "Bone"
    },
    {
      "children": [
        1
      ],
      "rotation": [
        0.7071068,
        0.0,
        0.0,
        0.7071068
      ],
      "name": "Armature"
    },
    {
      "mesh": 0,
      "name": "Cube"
    },
    {
      "children": [
        2,
        3
      ],
      "name": "riggedBox"
    }
  ],
  "scene": 0,
  "scenes": [
    {
      "nodes": [
        4
      ]
    }
  ]
}