{
  "accessors": [
    {
      "bufferView": 0,
      "componentType": 5126,
      "count": 24,
      "type": "VEC3",
      "max": [
        1.0,
        1.0,
        1.0
      ],
      "min": [
        -1.0,
        -1.0,
        -1.0
      ]
    },
    {
      "bufferView": 1,
      "componentType": 5126,
      "count": 24,
      "type": "VEC4",
      "max": [
        1.0,
        0.0,
        0.0,
        1.0
      ],
      "min": [
        1.0,
        0.0,
        0.0,
        1.0
      ]
    },
    {
      "bufferView": 2,
      "componentType": 5126,
      "count": 24,
      "type": "VEC3",
      "max": [
        1.0,
        1.0,
        1.0
      ],
      "min": [
        -1.0,
        -1.000001,
        -1.0
      ]
    },
    {
      "bufferView": 3,
      "componentType": 5126,
      "count": 24,
      "type": "VEC3",
      "max": [
        0.0,
        0.0,
        0.0
      ],
      "min": [
        0.0,
        0.0,
        0.0
      ],
      "name": "Long Box"
    },
    {
      "bufferView": 4,
      "componentType": 5126,
      "count": 24,
      "type": "VEC3",
      "max": [
        4.079658,
        0.0,
        0.0
      ],
      "min": [
        -4.079658,
        0.0,
        0.0
      ],
      "name": "Long Box"
    },
    {
      "bufferView": 5,
      "componentType": 5126,
      "count": 24,
      "type": "VEC3",
      "max": [
        0.0,
        0.0,
        0.0
      ],
      "min": [
        0.0,
        0.0,
        0.0
      ],
      "name": "Long Box"
    },
    {
      "bufferView": 6,
      "componentType": 5123,
      "count": 36,
      "type": "SCALAR",
      "max": [
        23
      ],
      "min": [
        0
      ]
    }
  ],
  "asset": {
    "generator": "glTF Tools for Unity",
    "version": "2.0"
  },
  "bufferViews": [
    {
      "buffer": 0,
      "byteLength": 288
    },
    {
      "buffer": 0,
      "byteOffset": 288,
      "byteLength": 384
    },
    {
      "buffer": 0,
      "byteOffset": 672,
      "byteLength": 288
    },
    {
      "buffer": 0,
      "byteOffset": 960,
      "byteLength": 288
    },
    {
      "buffer": 0,
      "byteOffset": 1248,
      "byteLength": 288
    },
    {
      "buffer": 0,
      "byteOffset": 1536,
      "byteLength": 288
    },
    {
      "buffer": 0,
      "byteOffset": 1824,
      "byteLength": 72
    }
  ],
  "buffers": [
    {
      "uri": "SimpleBox.bin",
      "byteLength": 1896
    }
  ],
  "meshes": [
    {
      "primitives": [
        {
          "attributes": {
            "NORMAL": 0,
            "TANGENT": 1,
            "POSITION": 2
          },
          "indices": 6,
          "material": 0,
          "targets": [
            {
              "NORMAL": 3,
              "POSITION": 4,
              "TANGENT": 5
            }
          ]
        }
      ],
      "weights": [
        0.0
      ],
      "name": "BasicBox"
    }
  ],
  "materials": [
    {
      "pbrMetallicRoughness": {
        "baseColorFactor": [
          0.6038274,
          0.6038274,
          0.6038274,
          1.0
        ],
        "metallicFactor": 0.0,
        "roughnessFactor": 0.5
      },
      "name": "BasicBoxMaterial"
    }
  ],
  "nodes": [
    {
      "mesh": 0,
      "rotation": [
        0.7071068,
        0.0,
        0.0,
        0.7071068
      ],
      "name": "SimpleBox"
    }
  ],
  "scene": 0,
  "scenes": [
    {
      "nodes": [
        0
      ]
    }
  ]
}